<svg width="13" height="14" viewBox="0 0 13 14" fill="none" xmlns="http://www.w3.org/2000/svg">
<path d="M2.39441 12.0044C2.24246 12.0041 2.09761 11.9351 1.9952 11.8143C1.8909 11.6944 1.83907 11.5322 1.85274 11.3686L1.98545 9.79708L8.11603 3.19725L10.0319 5.25992L3.90295 11.8592L2.4437 12.0021C2.42691 12.0038 2.41012 12.0044 2.39441 12.0044ZM10.4143 4.8475L8.49899 2.78483L9.64786 1.54758C9.74946 1.43805 9.88733 1.3765 10.0311 1.3765C10.1749 1.3765 10.3127 1.43805 10.4143 1.54758L11.5632 2.78483C11.6649 2.89425 11.7221 3.04272 11.7221 3.19754C11.7221 3.35236 11.6649 3.50084 11.5632 3.61025L10.4149 4.84692L10.4143 4.8475Z" fill="#2E3A59"/>
</svg>
