<svg width="83" height="87" viewBox="0 0 83 87" fill="none" xmlns="http://www.w3.org/2000/svg">
<path d="M41.5001 79.75C22.4002 79.75 6.91675 63.5203 6.91675 43.5C6.91675 23.4797 22.4002 7.25 41.5001 7.25C60.5999 7.25 76.0834 23.4797 76.0834 43.5C76.0625 63.5112 60.5912 79.728 41.5001 79.75ZM13.8334 44.1235C13.997 60.078 26.4256 72.8971 41.6472 72.8117C56.8688 72.7256 69.1652 59.7672 69.1652 43.8117C69.1652 27.8563 56.8688 14.8979 41.6472 14.8117C26.4256 14.7264 13.997 27.5455 13.8334 43.5V44.1235ZM44.9584 61.625H38.0417V47.125H24.2084V39.875H38.0417V25.375H44.9584V39.875H58.7918V47.125H44.9584V61.625Z" fill="#c4c4c4"/>
</svg>
