<svg width="13" height="14" viewBox="0 0 13 14" fill="none" xmlns="http://www.w3.org/2000/svg">
<path d="M6.50008 12.8334C4.30826 12.8347 2.33168 11.4135 1.49273 9.23278C0.653785 7.05211 1.11783 4.54188 2.66833 2.8735C4.03728 1.39924 6.03258 0.823482 7.9026 1.3631C9.77262 1.90271 11.2333 3.47572 11.7344 5.4896C12.2354 7.50347 11.7008 9.65224 10.3318 11.1265C9.31754 12.2238 7.93775 12.8384 6.50008 12.8334ZM2.16675 7.10033C2.19238 9.66772 4.13902 11.7306 6.52312 11.7168C8.90723 11.703 10.8332 9.61771 10.8332 7.05017C10.8332 4.48263 8.90723 2.39737 6.52312 2.3835C4.13902 2.36977 2.19238 4.43261 2.16675 7V7.10033ZM5.09662 9.33333L4.33342 8.51083L5.73633 7L4.33342 5.48917L5.09717 4.66667L6.50008 6.1775L7.903 4.66667L8.66675 5.48917L7.26383 7L8.66675 8.51083L7.90354 9.33333L6.50008 7.8225L5.09717 9.33333H5.09662Z" fill="#c4c4c4"/>
</svg>
