<svg width="12" height="13" viewBox="0 0 12 13" fill="none" xmlns="http://www.w3.org/2000/svg">
<path d="M6 11.375C5.36847 10.7914 4.78309 10.1517 4.25 9.46237C3.45 8.42725 2.5 6.88566 2.5 5.41666C2.49929 3.88242 3.35212 2.49892 4.66053 1.91175C5.96895 1.32459 7.47503 1.6495 8.476 2.73487C9.13423 3.44478 9.50296 4.41046 9.50002 5.41666C9.50002 6.88566 8.55 8.42725 7.75 9.46237C7.21691 10.1517 6.63154 10.7914 6 11.375ZM6 3.79166C5.4641 3.79166 4.96891 4.10139 4.70096 4.60416C4.43301 5.10694 4.43301 5.72639 4.70096 6.22916C4.96891 6.73194 5.4641 7.04166 6 7.04166C6.82843 7.04166 7.5 6.31413 7.5 5.41666C7.5 4.5192 6.82843 3.79166 6 3.79166Z" fill="#000000"/>
</svg>
