<svg width="13" height="14" viewBox="0 0 13 14" fill="none" xmlns="http://www.w3.org/2000/svg">
<path d="M6.49984 12.8333C5.90153 12.8333 5.4165 12.311 5.4165 11.6667H7.58317C7.58317 12.311 7.09815 12.8333 6.49984 12.8333ZM10.8332 11.0833H2.1665V9.91667L3.24984 9.33334V6.12501C3.24984 4.10551 4.01955 2.79592 5.4165 2.43834V1.16667H7.58317V2.43834C8.98013 2.79534 9.74984 4.10434 9.74984 6.12501V9.33334L10.8332 9.91667V11.0833ZM6.49984 3.35417C5.83882 3.30821 5.20135 3.62675 4.80713 4.20001C4.46997 4.77433 4.30454 5.44623 4.33317 6.12501V9.91667H8.6665V6.12501C8.6951 5.44623 8.52968 4.77435 8.19254 4.20001C7.79833 3.62675 7.16085 3.30821 6.49984 3.35417Z" fill="#3C3C3C"/>
</svg>
