<svg width="13" height="14" viewBox="0 0 13 14" fill="none" xmlns="http://www.w3.org/2000/svg">
<path d="M9.52072 11.0833L6.93859 8.30316C5.77066 9.1329 4.20914 8.87623 3.32423 7.70907C2.43931 6.5419 2.5181 4.84291 3.50659 3.7765C4.49666 2.71156 6.07447 2.62634 7.15851 3.57926C8.24254 4.53218 8.48101 6.21401 7.71047 7.47191L10.2915 10.2532L9.52072 11.0833ZM5.43493 4.09149C4.65452 4.09096 3.98244 4.68418 3.82969 5.50836C3.67694 6.33254 4.08607 7.15815 4.80688 7.48029C5.52768 7.80242 6.35941 7.53136 6.79342 6.83288C7.22742 6.13439 7.14284 5.20302 6.59138 4.60833C6.28548 4.27661 5.86904 4.0905 5.43493 4.09149Z" fill="#2E3A59"/>
</svg>
